<svg xmlns="http://www.w3.org/2000/svg" xmlns:xlink="http://www.w3.org/1999/xlink" version="1.1" id="Layer_1" viewBox="0 0 512.001 512.001" xml:space="preserve">
<path style="fill:#AFB6BB;" d="M233.226,313.374c24.476,0,44.3,19.824,44.3,44.3s-19.824,44.3-44.3,44.3s-44.3-19.824-44.3-44.3  S208.75,313.374,233.226,313.374z"/>
<path style="fill:#7E8488;" d="M318.172,332.533c2.437,7.974,3.655,16.391,3.655,25.14c0,48.952-39.649,88.601-88.601,88.601  c-42.639,0-78.19-30.013-86.718-70.105c-1.218-5.981-1.883-12.183-1.883-18.495c0-48.952,39.649-88.601,88.601-88.601  C273.429,269.073,307.429,295.875,318.172,332.533z M277.526,357.674c0-24.476-19.824-44.3-44.3-44.3s-44.3,19.824-44.3,44.3  s19.824,44.3,44.3,44.3S277.526,382.15,277.526,357.674z"/>
<g>
	<polygon style="fill:#00B4D7;" points="439.223,67.507 501.908,314.37 437.561,330.761 430.695,303.849 381.632,110.7    374.766,83.787  "/>
	<path style="fill:#00B4D7;" d="M70.533,235.405l38.209,150.289l-42.971,10.964c-5.981,1.44-11.961-2.104-13.512-7.974   l-21.945-86.39L8.623,216.91c-1.44-5.981,2.104-11.961,8.085-13.512l42.861-10.854L70.533,235.405z"/>
</g>
<path style="fill:#03a9f4;" d="M381.632,110.7l49.063,193.149l-108.868,27.688l-3.655,0.997  c-10.743-36.659-44.743-63.46-84.946-63.46c-48.952,0-88.601,39.649-88.601,88.601c0,6.313,0.665,12.515,1.883,18.495l-1.883,0.443  l-35.883,9.082L70.533,235.405l-10.964-42.861L381.632,110.7z"/>
<path style="fill:#00a8d4;" d="M416.643,248.526l14.053,55.323l6.867,26.912l64.346-16.391l-15.779-62.14  C462.495,251.8,439.308,250.54,416.643,248.526z"/>
<path style="fill:#3f51b5;" d="M139.099,172.347l-79.53,20.197l10.964,42.861l38.209,150.289l35.883-9.082l1.883-0.443  c-1.218-5.981-1.883-12.183-1.883-18.495c0-48.952,39.649-88.601,88.601-88.601c40.203,0,74.203,26.802,84.946,63.46l3.655-0.997  l108.868-27.688l-14.052-55.322C307.342,238.809,210.578,211.371,139.099,172.347z"/>
<path d="M431.565,340.861l80.436-20.49L445.231,57.422l-80.572,20.35l6.869,26.925L269.94,130.519l4.092,16.101l101.594-25.824  L420.6,297.845l-97.065,24.686c-14.265-36.739-50.305-61.765-90.308-61.765c-53.435,0-96.907,43.472-96.907,96.907  c0,4.069,0.259,8.17,0.768,12.278l-22.338,5.654L80.63,241.411l238.81-60.641l-4.088-16.102L76.525,225.313l-6.847-26.764  l182.206-46.299l-4.092-16.101l-144.649,36.767L95.061,140.7l-51.04,12.891l4.069,16.107l34.905-8.816l4.045,16.123l-29.96,7.6  l-42.457,10.752c-10.414,2.701-16.597,13.021-14.051,23.598l17.481,68.816l16.102-4.09l-17.457-68.714  c-0.387-1.601,0.515-3.118,2.048-3.515l34.829-8.82l8.909,34.821l36.163,142.245l-34.858,8.894c-1.57,0.356-3.103-0.526-3.48-1.953  l-20.544-80.871l-16.102,4.09l20.563,80.947c2.314,8.762,10.091,14.493,18.776,14.493c1.549,0,3.13-0.184,4.711-0.564l43.048-10.983  l29.793-7.54c5.592,18.099,16.484,34.375,31.257,46.472c2.294,1.878,4.673,3.635,7.118,5.285H61.562v16.613H427.04v-16.613H287.428  c25.75-17.438,42.706-46.923,42.706-80.294c0-6.565-0.651-12.988-1.912-19.193l96.477-24.536L431.565,340.861z M384.873,89.802  l48.339-12.21l58.6,230.778l-48.256,12.293L384.873,89.802z M233.226,437.968c-37.711,0-70.763-26.717-78.578-63.456  c-1.139-5.592-1.717-11.258-1.717-16.839c0-44.275,36.019-80.294,80.294-80.294c35.403,0,67.055,23.641,76.975,57.49l0.027,0.092  c2.185,7.149,3.293,14.79,3.293,22.713C313.52,401.948,277.5,437.968,233.226,437.968z" fill="#000000"/>
<rect x="333.239" y="152.746" transform="matrix(0.2444 0.9697 -0.9697 0.2444 419.5896 -205.3302)" style="fill:#FFFFFF;" width="16.613" height="27.641"/>
<rect x="373.894" y="272.899" transform="matrix(-0.9696 0.2449 -0.2449 -0.9696 827.0923 459.5736)" width="22.162" height="16.613" fill="#000000"/>
<rect x="349.734" y="254.152" transform="matrix(-0.2449 -0.9695 0.9695 -0.2449 188.5734 677.3257)" width="16.612" height="22.16" fill="#000000"/>
<path d="M233.226,305.067c-29.007,0-52.607,23.6-52.607,52.607c0,29.007,23.6,52.607,52.607,52.607  c29.007,0,52.607-23.6,52.607-52.607C285.833,328.667,262.233,305.067,233.226,305.067z M233.226,393.668  c-19.848,0-35.994-16.147-35.994-35.994s16.146-35.994,35.994-35.994s35.994,16.147,35.994,35.994S253.073,393.668,233.226,393.668z  " fill="#000000"/>
<rect x="222.155" y="349.364" style="fill:#FFFFFF;" width="22.15" height="16.613"/>
</svg>